<?xml version="1.0" standalone="no"?>
<!DOCTYPE svg PUBLIC "-//W3C//DTD SVG 20010904//EN"
 "http://www.w3.org/TR/2001/REC-SVG-20010904/DTD/svg10.dtd">
<svg version="1.0" xmlns="http://www.w3.org/2000/svg"
 width="512.000000pt" height="512.000000pt" viewBox="0 0 512.000000 512.000000"
 preserveAspectRatio="xMidYMid meet">
<metadata>
Created by potrace 1.14, written by Peter Selinger 2001-2017
</metadata>
<g transform="translate(0.000000,512.000000) scale(0.100000,-0.100000)"
fill="#000000" stroke="none">
<path d="M2524 4803 c-35 -64 -105 -198 -209 -398 -67 -128 -117 -224 -220
-420 -29 -55 -83 -158 -120 -230 -37 -71 -87 -166 -110 -210 -134 -254 -360
-688 -465 -890 -46 -88 -91 -173 -100 -190 -10 -16 -55 -102 -100 -190 -45
-88 -99 -191 -120 -230 -21 -38 -68 -128 -105 -200 -75 -145 -154 -294 -225
-430 -26 -49 -76 -144 -110 -210 -34 -66 -84 -160 -110 -210 -26 -49 -78 -148
-115 -220 -37 -71 -91 -175 -120 -230 -29 -55 -76 -144 -103 -197 l-50 -98 44
0 c24 0 44 -5 44 -11 0 -6 5 -7 13 -2 14 9 167 12 167 3 0 -3 10 -11 23 -19
l22 -14 -20 22 c-21 24 -2 27 23 4 7 -7 18 -13 25 -13 6 0 3 6 -7 13 -15 11
-12 13 24 13 22 1 40 -2 40 -7 0 -4 7 -10 16 -13 14 -5 15 -4 4 9 -10 12 -10
15 4 15 9 0 16 -8 17 -17 0 -15 2 -15 7 -3 8 17 32 25 32 10 0 -6 5 -10 11
-10 5 0 8 3 5 8 -2 4 9 8 25 8 16 1 26 -2 23 -7 -3 -5 0 -9 5 -9 6 0 11 5 11
10 0 6 5 10 11 10 5 0 7 -4 4 -10 -3 -5 -2 -10 4 -10 5 0 12 6 14 13 4 9 6 9
6 0 1 -7 6 -13 12 -13 5 0 8 4 5 8 -3 5 17 9 44 8 27 0 47 -3 44 -8 -3 -4 0
-8 5 -8 6 0 11 4 11 8 0 4 18 8 40 9 22 0 37 -3 34 -8 -3 -5 0 -9 6 -9 6 0 8
-4 5 -10 -4 -6 1 -7 11 -3 11 4 13 8 6 11 -24 8 -11 19 23 19 19 0 35 -4 35
-8 0 -4 7 -10 16 -13 14 -5 15 -4 4 9 -10 12 -10 15 4 15 9 0 16 -8 17 -17 0
-15 2 -15 7 -3 8 17 32 25 32 10 0 -6 5 -10 11 -10 5 0 7 5 4 10 -3 6 -1 10 4
10 6 0 11 -3 11 -8 0 -4 10 -13 22 -21 22 -13 23 -13 5 6 -14 16 -15 20 -2 20
8 0 15 -4 15 -8 0 -4 7 -10 16 -13 13 -5 14 -3 6 7 -8 10 -2 13 29 13 30 1 39
-3 35 -13 -3 -7 -1 -13 4 -13 6 0 10 6 10 14 0 10 13 13 50 13 28 -1 50 -4 50
-7 0 -3 10 -11 23 -19 l22 -14 -20 22 c-21 24 -2 27 23 3 7 -6 18 -12 25 -12
6 0 3 6 -7 13 -15 11 -12 13 24 13 22 1 40 -2 40 -7 0 -4 7 -10 16 -13 14 -5
15 -4 4 9 -10 12 -10 15 4 15 9 0 16 -8 17 -17 0 -15 2 -15 7 -3 8 17 32 25
32 10 0 -6 5 -10 11 -10 5 0 8 3 5 8 -2 4 9 8 25 8 16 1 26 -2 23 -7 -3 -5 0
-9 5 -9 6 0 11 5 11 10 0 6 5 10 11 10 5 0 7 -4 4 -10 -3 -5 -2 -10 4 -10 5 0
12 6 14 13 4 9 6 9 6 0 1 -7 6 -13 12 -13 5 0 8 4 5 8 -3 5 17 9 44 8 27 0 47
-3 44 -8 -3 -4 0 -8 5 -8 6 0 11 4 11 8 0 4 18 8 40 9 22 0 37 -3 34 -8 -3 -5
0 -9 6 -9 6 0 8 -4 5 -10 -4 -6 1 -7 11 -3 11 4 13 8 6 11 -24 8 -11 19 23 19
19 0 35 -4 35 -8 0 -4 7 -10 16 -13 14 -5 15 -4 4 9 -10 12 -10 15 4 15 9 0
16 -8 17 -17 0 -15 2 -15 7 -3 8 17 32 25 32 10 0 -6 5 -10 11 -10 5 0 7 5 4
10 -3 6 -1 10 4 10 6 0 11 -3 11 -8 0 -4 10 -13 23 -21 21 -13 22 -13 4 6 -14
16 -15 20 -2 20 8 0 15 -4 15 -8 0 -4 7 -10 16 -13 13 -5 14 -3 6 7 -8 10 -2
13 29 13 30 1 39 -3 35 -13 -3 -7 -1 -13 4 -13 6 0 10 6 10 14 0 10 13 13 50
13 28 -1 50 -4 50 -7 0 -3 10 -11 23 -19 l22 -14 -20 22 c-21 24 -2 27 23 4 7
-7 18 -13 25 -13 6 0 3 6 -7 13 -15 11 -12 13 24 13 22 1 40 -2 40 -7 0 -4 7
-10 16 -13 14 -5 15 -4 4 9 -10 12 -10 15 4 15 9 0 16 -8 17 -17 0 -15 2 -15
7 -3 8 17 32 25 32 10 0 -6 5 -10 11 -10 5 0 8 3 5 8 -2 4 9 8 25 8 16 1 26
-2 23 -7 -3 -5 0 -9 5 -9 6 0 11 5 11 10 0 6 5 10 11 10 5 0 7 -4 4 -10 -3 -5
-2 -10 4 -10 5 0 12 6 14 13 4 10 6 10 6 0 1 -7 6 -13 12 -13 5 0 8 4 5 8 -3
5 17 9 44 8 27 0 47 -3 44 -8 -3 -4 0 -8 5 -8 6 0 11 4 11 8 0 4 18 8 40 9 22
0 37 -3 34 -8 -3 -5 0 -9 6 -9 6 0 8 -4 5 -10 -4 -6 1 -7 11 -3 11 4 13 8 6
11 -24 8 -11 19 23 19 19 0 35 -4 35 -8 0 -4 7 -10 16 -13 14 -5 15 -4 4 9
-10 12 -10 15 4 15 9 0 16 -8 17 -17 0 -15 2 -15 7 -3 8 17 32 25 32 10 0 -6
5 -10 11 -10 5 0 7 5 4 10 -3 6 -1 10 4 10 6 0 11 -3 11 -8 0 -4 10 -13 23
-21 21 -13 22 -13 4 6 -14 16 -15 20 -2 20 8 0 15 -4 15 -8 0 -4 7 -10 16 -13
13 -5 14 -3 6 7 -8 10 -2 13 29 13 30 1 39 -3 35 -13 -3 -7 -1 -13 4 -13 6 0
10 6 10 14 0 10 13 13 50 13 28 -1 50 -4 50 -7 0 -3 10 -11 23 -19 l22 -14
-20 22 c-21 24 -2 27 23 3 7 -6 18 -12 25 -12 6 0 3 6 -7 13 -15 11 -12 13 24
13 22 1 40 -2 40 -7 0 -4 7 -10 16 -13 14 -5 15 -4 4 9 -10 12 -10 15 4 15 9
0 16 -8 17 -17 0 -15 2 -15 7 -3 8 17 32 25 32 10 0 -6 5 -10 11 -10 5 0 8 3
5 8 -2 4 9 8 25 8 16 1 26 -2 23 -7 -3 -5 0 -9 5 -9 6 0 11 5 11 10 0 6 5 10
11 10 5 0 7 -4 4 -10 -3 -5 -2 -10 4 -10 5 0 12 6 14 13 4 9 6 9 6 0 1 -7 6
-13 12 -13 5 0 8 4 5 8 -3 5 17 9 44 8 27 0 47 -3 44 -8 -3 -4 0 -8 5 -8 6 0
11 4 11 8 0 4 18 8 40 9 22 0 37 -3 34 -8 -3 -5 0 -9 6 -9 6 0 8 -4 5 -10 -4
-6 1 -7 11 -3 11 4 13 8 6 11 -24 8 -11 19 23 19 19 0 35 -4 35 -8 0 -4 7 -10
16 -13 14 -5 15 -4 4 9 -10 12 -10 15 4 15 9 0 16 -8 17 -17 0 -15 2 -15 7 -3
8 17 32 25 32 10 0 -6 5 -10 11 -10 5 0 7 5 4 10 -3 6 -1 10 4 10 6 0 11 -3
11 -8 0 -4 10 -13 23 -21 21 -13 22 -13 4 6 -14 16 -15 20 -2 20 8 0 15 -4 15
-8 0 -4 7 -10 16 -13 13 -5 14 -3 6 7 -8 10 -2 13 29 13 30 1 39 -3 35 -13 -3
-7 -1 -13 4 -13 6 0 10 6 10 14 0 10 13 13 50 13 28 -1 50 -4 50 -7 0 -3 10
-11 23 -19 l22 -14 -20 22 c-21 24 -2 27 23 3 7 -6 18 -12 25 -12 6 0 3 6 -7
13 -15 11 -12 13 24 13 22 1 40 -2 40 -7 0 -4 7 -10 16 -13 14 -5 15 -4 4 9
-10 12 -10 15 4 15 9 0 16 -8 17 -17 0 -15 2 -15 7 -3 8 17 32 25 32 10 0 -6
5 -10 11 -10 5 0 8 3 5 8 -2 4 9 8 25 8 16 1 26 -2 23 -7 -3 -5 0 -9 5 -9 6 0
11 5 11 10 0 6 5 10 11 10 5 0 7 -4 4 -10 -3 -5 -2 -10 4 -10 5 0 12 6 14 13
4 9 6 9 6 0 1 -7 6 -13 12 -13 5 0 8 4 5 8 -3 5 17 9 44 8 27 0 47 -3 44 -8
-3 -4 0 -8 5 -8 6 0 11 4 11 8 0 4 18 8 40 9 22 0 37 -3 34 -8 -3 -5 0 -9 6
-9 6 0 8 -4 5 -10 -4 -6 1 -7 11 -3 11 4 13 8 6 11 -24 8 -11 19 23 19 19 0
35 -4 35 -8 0 -4 7 -10 16 -13 13 -5 14 -4 6 7 -10 11 -5 14 23 14 19 0 35 -4
35 -9 0 -4 5 -8 11 -8 5 0 7 5 4 10 -3 6 0 10 7 10 7 0 19 10 27 23 13 20 13
21 -2 8 -16 -12 -21 -9 -18 12 0 4 -4 7 -9 7 -6 0 -10 6 -10 14 0 8 -6 17 -12
20 -10 5 -10 7 -1 12 7 3 13 10 13 15 0 6 -4 8 -9 5 -10 -7 -30 17 -56 67 -16
33 -17 40 -4 49 11 8 11 9 -3 4 -18 -5 -43 25 -31 38 3 3 0 6 -8 6 -11 0 -11
2 1 10 13 8 12 10 -3 10 -14 0 -17 5 -12 23 5 17 4 19 -4 7 -10 -13 -15 -8
-12 13 0 4 -5 7 -12 7 -8 0 -7 4 3 10 13 8 12 10 -4 10 -13 0 -17 5 -13 20 3
10 2 19 -2 18 -19 -2 -22 4 -10 19 8 9 9 14 3 10 -7 -4 -19 4 -29 19 -14 21
-14 28 -3 42 11 15 11 16 -4 4 -14 -11 -20 -6 -48 50 -18 34 -34 71 -35 80 -2
10 -11 25 -19 34 -19 19 -21 28 -3 18 6 -4 2 3 -11 15 -12 12 -20 26 -17 32 4
5 1 9 -4 9 -6 0 -11 7 -11 15 0 8 -5 15 -12 15 -6 0 -9 3 -6 6 4 3 -5 22 -18
41 -22 32 -29 53 -25 76 0 4 -6 7 -14 7 -8 0 -15 8 -15 18 0 10 -7 28 -16 40
-8 12 -12 27 -9 32 4 6 3 9 -2 8 -4 -2 -9 1 -10 6 -1 5 -7 12 -14 17 -10 6
-10 11 1 23 11 14 10 16 -3 10 -16 -6 -42 28 -30 40 3 3 1 6 -6 6 -7 0 -10 4
-7 9 4 5 2 11 -3 13 -5 1 -11 10 -13 18 -2 8 -7 18 -13 22 -6 5 -4 12 5 19 13
9 13 10 -2 6 -22 -7 -30 3 -16 20 9 11 8 13 -2 11 -7 -2 -18 7 -25 18 -6 12
-16 29 -23 37 -7 8 -9 23 -5 32 4 12 3 16 -4 12 -6 -4 -14 4 -17 17 -3 14 -12
31 -19 38 -21 22 -57 95 -50 102 3 3 1 6 -6 6 -7 0 -9 5 -6 10 3 6 1 10 -5 10
-6 0 -8 4 -5 10 3 5 2 10 -4 10 -9 0 -20 22 -22 45 0 6 -7 14 -15 18 -8 5 -12
12 -9 17 3 5 1 11 -5 15 -5 3 -15 15 -21 27 -6 11 -7 18 -2 15 5 -4 10 1 10 9
0 8 -6 13 -13 10 -11 -4 -28 27 -25 47 1 4 -3 7 -8 7 -8 0 -22 32 -25 55 -1 6
-10 18 -21 28 -18 17 -18 18 -2 13 11 -3 16 -2 12 4 -3 6 -13 10 -22 10 -10 0
-14 6 -10 20 3 10 2 19 -2 18 -19 -2 -24 3 -11 12 13 8 12 10 -3 10 -10 0 -16
4 -13 9 4 5 3 11 -1 13 -16 6 -54 88 -47 100 4 6 3 8 -4 4 -10 -6 -23 17 -21
37 0 5 -7 15 -17 21 -16 12 -16 14 2 25 18 11 18 11 1 9 -13 -2 -27 12 -48 50
-16 28 -26 52 -22 52 4 0 3 4 -2 8 -16 10 -55 81 -55 98 0 8 -4 14 -9 14 -9 0
-27 40 -22 48 1 2 -6 10 -16 18 -11 8 -13 13 -5 14 6 0 12 5 12 10 0 6 -5 9
-10 8 -6 -2 -20 13 -32 31 -12 19 -18 32 -12 28 6 -3 11 0 11 8 0 8 -4 12 -8
9 -10 -6 -40 37 -33 48 3 4 0 8 -5 8 -6 0 -11 6 -11 14 0 8 -6 17 -12 19 -10
4 -9 8 2 16 14 10 13 12 -11 15 -13 1 -33 46 -21 46 4 0 -1 5 -10 10 -9 6 -19
24 -23 40 -4 17 -11 30 -17 30 -6 0 -8 9 -5 20 3 11 1 18 -3 15 -5 -3 -14 4
-20 16 -7 13 -8 19 -2 15 6 -3 14 -1 18 5 4 7 3 9 -4 5 -14 -9 -44 23 -38 41
3 8 2 12 -3 9 -15 -10 -22 26 -9 43 11 14 11 14 -3 3 -14 -10 -18 -10 -23 4
-3 9 -4 20 -1 24 3 5 0 12 -6 16 -8 5 -10 2 -5 -7 4 -8 0 -5 -8 5 -19 24 -21
40 -3 30 6 -4 0 4 -15 19 -19 17 -26 32 -21 43 4 12 3 15 -5 10 -7 -4 -12 -1
-12 7 0 8 -7 20 -15 27 -9 7 -13 15 -11 18 3 3 -3 17 -13 31 -20 30 -35 62
-33 74 1 4 -3 7 -9 7 -5 0 -7 5 -4 10 3 6 1 10 -5 10 -7 0 -10 7 -7 15 4 8 1
17 -5 21 -7 5 -8 2 -3 -6 6 -9 4 -11 -4 -5 -7 4 -11 18 -8 31 2 13 1 21 -3 19
-11 -7 -42 44 -35 55 3 6 1 10 -4 10 -6 0 -18 17 -26 37 -9 21 -20 40 -26 44
-5 3 -11 16 -12 27 -1 12 -4 22 -7 22 -11 0 -50 77 -43 84 3 3 1 6 -6 6 -7 0
-9 5 -6 10 3 6 0 10 -7 10 -9 0 -9 3 2 10 13 8 12 10 -2 10 -16 0 -20 6 -17
26 0 4 -3 10 -8 13 -19 12 -84 143 -79 156 3 8 0 17 -6 21 -7 4 -8 3 -4 -4 4
-7 5 -12 1 -12 -3 0 -17 26 -32 58 -15 31 -29 59 -33 62 -10 9 -30 50 -30 60
0 6 5 8 12 4 7 -4 8 -3 4 5 -4 6 -11 9 -16 6 -10 -6 -51 70 -43 79 4 3 1 6 -5
6 -7 0 -12 5 -12 11 0 6 -9 24 -21 40 -11 16 -17 34 -13 40 4 7 3 9 -3 6 -6
-4 -14 0 -17 9 -9 23 -8 23 14 19 12 -2 18 0 15 6 -4 5 -10 7 -14 4 -24 -14
-59 47 -40 71 5 7 3 11 -6 11 -8 0 -12 -4 -9 -9 3 -4 1 -8 -3 -8 -16 0 -32 57
-19 70 8 8 7 10 -5 5 -10 -4 -20 -1 -25 6 -5 8 -3 10 7 5 10 -6 10 -4 -1 6
-17 15 -28 33 -71 119 -17 32 -33 59 -37 59 -4 0 -21 -26 -38 -57z m41 -1843
c-3 -5 -1 -10 5 -10 6 0 8 -4 5 -10 -3 -5 -1 -10 5 -10 6 0 8 -4 5 -10 -3 -5
-2 -10 4 -10 6 0 17 -13 26 -30 18 -35 19 -44 3 -34 -7 4 -8 3 -4 -5 4 -6 11
-9 16 -6 7 4 20 -15 24 -35 1 -3 4 -10 8 -16 26 -41 129 -242 127 -250 0 -4 3
-10 8 -13 21 -15 164 -301 157 -313 -4 -7 -2 -8 4 -4 7 4 12 1 12 -8 0 -8 3
-16 8 -18 4 -1 23 -34 42 -73 19 -38 53 -105 76 -147 23 -43 39 -78 36 -78 -4
0 -2 -4 4 -8 6 -4 52 -88 103 -186 50 -99 96 -186 103 -193 6 -7 7 -13 2 -13
-5 0 -4 -4 2 -8 6 -4 30 -45 53 -92 24 -47 65 -127 92 -179 27 -52 49 -96 49
-98 0 -2 -434 -3 -965 -3 -624 0 -965 4 -965 10 0 6 -5 10 -11 10 -5 0 -7 -5
-3 -12 5 -7 3 -8 -6 -3 -10 6 -9 11 4 20 9 7 16 17 15 21 -3 15 12 44 23 44 6
0 4 -8 -3 -17 -9 -11 -4 -10 15 5 15 12 32 20 36 17 3 -2 7 2 7 10 0 11 -4 12
-13 4 -7 -6 -19 -7 -25 -3 -8 5 -9 3 -4 -6 5 -9 4 -11 -4 -6 -8 5 -7 16 6 39
10 18 21 34 26 35 4 2 5 8 1 13 -3 5 -1 9 4 9 6 0 12 -7 16 -15 3 -10 -1 -15
-11 -15 -9 0 -14 -3 -10 -6 3 -4 14 -4 23 0 15 6 15 8 0 31 -9 13 -12 26 -7
30 6 3 13 -1 18 -9 6 -11 13 -12 23 -6 13 8 12 10 -2 10 -10 0 -18 5 -18 10 0
6 7 10 15 10 8 0 15 4 15 9 0 5 7 17 16 25 9 9 11 16 4 16 -6 0 -8 4 -5 10 4
6 -1 7 -12 3 -17 -6 -17 -5 0 14 9 11 14 22 11 25 -3 3 -1 9 4 12 5 3 9 -2 9
-12 0 -32 3 -42 12 -42 5 0 8 8 6 18 -2 9 -4 17 -5 17 -1 0 -4 12 -6 27 -4 21
1 31 20 43 25 17 52 12 40 -6 -3 -5 -10 -6 -16 -3 -7 5 -8 2 -3 -5 10 -18 29
2 31 33 1 23 0 24 -23 9 -13 -9 -26 -13 -30 -9 -3 3 -1 6 6 6 7 0 9 5 5 12 -4
6 -3 8 4 4 6 -3 13 -2 17 4 3 5 0 10 -7 10 -9 0 -9 3 2 10 8 5 11 10 6 10 -5
0 -2 8 6 18 9 9 19 27 22 40 4 12 12 22 18 22 7 0 7 -5 -1 -14 -6 -7 -8 -22
-4 -31 5 -14 3 -16 -7 -10 -9 5 -11 4 -6 -4 11 -17 28 -2 21 20 -4 12 -1 21
10 25 14 6 14 8 -1 19 -13 9 -14 14 -4 20 7 4 16 2 21 -6 6 -9 9 -10 9 -2 0 6
-4 15 -10 18 -5 3 -10 11 -10 17 0 6 6 5 16 -3 13 -10 17 -10 24 1 5 8 7 17 4
21 -2 4 3 9 11 13 9 3 12 12 8 22 -4 12 -3 15 6 10 6 -4 10 -3 9 3 -2 5 6 17
17 25 l20 16 -20 -7 c-18 -6 -18 -5 -6 10 7 10 9 17 3 17 -6 0 -12 -6 -15 -12
-2 -7 -7 -10 -11 -7 -4 4 0 14 9 23 9 9 13 16 9 16 -3 0 -1 7 6 15 7 8 9 15 6
15 -4 0 -4 5 -1 10 4 6 11 8 16 4 6 -4 6 -11 -2 -20 -8 -10 -8 -14 0 -14 6 0
11 5 11 11 0 5 6 7 13 3 6 -4 9 -3 4 1 -4 5 3 20 15 34 l23 26 -26 -23 c-19
-16 -28 -20 -31 -11 -6 18 15 59 30 59 10 0 9 -4 -2 -16 -24 -23 -19 -27 8 -7
24 18 24 18 4 29 -13 7 -16 13 -9 15 7 3 13 13 15 22 1 10 9 23 17 28 8 5 11
9 6 9 -9 0 44 103 55 108 4 2 8 11 8 21 0 9 9 27 19 38 11 12 17 24 13 29 -4
4 -1 3 7 -1 10 -6 13 -4 9 7 -7 18 8 46 19 35 4 -5 1 -12 -7 -17 -17 -11 -9
-13 15 -4 14 6 14 8 -2 27 -10 11 -12 17 -5 13 9 -5 13 -3 11 5 -3 24 1 39 10
39 4 0 7 -13 5 -29 -2 -20 2 -31 13 -35 13 -5 14 -4 3 9 -10 12 -10 15 1 16
10 0 11 2 2 6 -7 2 -13 9 -13 14 0 6 6 7 13 3 6 -4 3 2 -7 14 -11 12 -14 22
-8 22 7 0 11 3 10 8 -3 15 26 62 39 62 7 0 13 5 13 11 0 5 -5 7 -10 4 -6 -4
-5 5 2 19 13 30 35 34 41 9 2 -10 4 -1 3 19 0 32 -1 35 -13 20 -8 -9 -1 8 14
40 15 31 32 55 37 55 5 -1 11 4 14 12 3 9 0 11 -9 6 -7 -5 -2 7 11 26 14 19
23 36 22 39 -2 2 2 6 10 8 9 2 8 0 -2 -7 -10 -7 -11 -11 -3 -11 8 0 10 -7 6
-17 -6 -15 -5 -16 9 -3 11 11 12 17 4 22 -6 4 -7 8 -2 8 5 0 3 6 -3 14 -8 10
-9 16 -1 21 6 3 8 11 5 16 -4 5 -3 9 2 9 7 0 56 84 59 102 1 4 2 13 3 19 1 7
10 5 26 -5 14 -9 25 -12 25 -6 0 5 -4 10 -9 10 -6 0 -8 9 -6 20 2 12 0 18 -6
15 -5 -4 -6 -11 -3 -17 4 -7 2 -8 -5 -4 -8 5 -6 15 9 36 11 15 20 33 20 39 0
6 5 11 11 11 5 0 7 -4 4 -10z m-610 -1176 c-9 -9 -14 -21 -12 -28 2 -6 -5 -16
-17 -23 -12 -7 -15 -12 -8 -13 7 0 10 -5 6 -11 -4 -8 -9 -7 -14 2 -10 16 30
89 48 89 10 0 9 -4 -3 -16z m-211 -419 c-7 -16 -44 -41 -44 -29 0 4 8 13 18
21 9 8 11 11 3 7 -9 -5 -12 -3 -7 4 11 18 36 15 30 -3z"/>
<path d="M2545 2931 c-3 -5 -1 -12 4 -16 6 -3 8 -13 5 -23 -4 -13 -3 -12 7 2
9 15 9 21 1 24 -7 2 -10 8 -6 13 3 5 3 9 0 9 -3 0 -7 -4 -11 -9z"/>
<path d="M2508 2849 c14 -15 16 -33 2 -24 -5 3 -10 2 -10 -4 0 -5 8 -9 19 -8
22 1 17 33 -7 42 -14 5 -15 4 -4 -6z"/>
<path d="M2487 2799 c7 -7 15 -10 18 -7 3 3 -2 9 -12 12 -14 6 -15 5 -6 -5z"/>
<path d="M2476 2782 c2 -2 -6 -16 -16 -30 -22 -28 -25 -42 -9 -42 5 0 8 4 4
10 -3 5 4 19 16 31 12 12 17 24 12 29 -6 4 -8 5 -7 2z"/>
<path d="M2490 2739 c0 -5 5 -7 10 -4 6 3 10 8 10 11 0 2 -4 4 -10 4 -5 0 -10
-5 -10 -11z"/>
<path d="M2397 2645 c-4 -8 -3 -16 1 -19 4 -3 9 4 9 15 2 23 -3 25 -10 4z"/>
<path d="M2387 2595 c-35 -24 -43 -37 -37 -60 2 -5 2 -19 2 -30 -1 -15 1 -17
8 -5 5 8 5 21 -1 32 -6 11 -6 18 0 18 5 0 12 -6 14 -12 4 -10 6 -10 6 -1 1 6
-4 15 -10 18 -6 5 -4 12 8 20 14 10 21 11 33 2 13 -11 13 -10 0 7 -13 18 -13
19 1 14 10 -4 16 -1 16 8 0 17 4 19 -40 -11z"/>
<path d="M2310 2438 c0 -6 3 -8 7 -5 3 4 12 -1 20 -11 13 -15 13 -15 3 6 -11
23 -30 30 -30 10z"/>
<path d="M2275 2412 c-3 -3 -5 -10 -5 -16 0 -6 5 -4 10 4 8 13 10 13 10 -2 0
-9 3 -19 8 -21 4 -3 7 5 7 17 0 20 -17 30 -30 18z"/>
<path d="M2254 2365 c3 -23 12 -26 13 -5 1 11 -2 20 -7 20 -4 0 -7 -7 -6 -15z"/>
<path d="M2275 2329 c-4 -6 -5 -12 -2 -15 2 -3 7 2 10 11 7 17 1 20 -8 4z"/>
<path d="M2220 2239 c0 -5 5 -7 10 -4 6 3 10 8 10 11 0 2 -4 4 -10 4 -5 0 -10
-5 -10 -11z"/>
<path d="M2182 2213 c-6 -2 -10 -9 -6 -14 3 -5 -3 -9 -13 -9 -15 0 -16 -2 -3
-10 17 -11 37 -14 27 -4 -3 4 -2 15 4 25 5 11 8 19 7 18 -2 0 -9 -3 -16 -6z"/>
<path d="M2137 2144 c-11 -14 -16 -28 -13 -31 3 -4 6 -1 6 5 0 7 5 12 11 12 5
0 7 -5 3 -12 -4 -7 -3 -8 4 -4 6 4 8 14 5 24 -6 14 -4 15 9 4 13 -11 18 -11
24 0 4 7 4 10 -1 6 -4 -4 -13 -1 -19 7 -9 12 -14 10 -29 -11z"/>
<path d="M2160 2100 c-9 -6 -10 -10 -3 -10 6 0 15 5 18 10 8 12 4 12 -15 0z"/>
<path d="M2109 2091 c-1 -3 -1 -9 0 -13 0 -5 -3 -8 -8 -8 -5 0 -12 -7 -15 -15
-5 -13 -1 -12 19 2 29 22 38 40 19 40 -8 0 -15 -3 -15 -6z"/>
<path d="M2100 2035 c-12 -13 -27 -22 -33 -18 -6 3 -7 1 -3 -5 9 -15 27 -6 49
23 23 32 17 32 -13 0z"/>
<path d="M2060 1979 c0 -4 7 -10 16 -13 8 -3 13 -2 9 3 -3 5 1 11 7 14 7 3 3
4 -9 4 -13 -1 -23 -4 -23 -8z"/>
<path d="M2076 1927 c3 -10 9 -15 12 -12 3 3 0 11 -7 18 -10 9 -11 8 -5 -6z"/>
<path d="M2010 1838 c0 -4 4 -8 9 -8 6 0 12 4 15 8 3 5 -1 9 -9 9 -8 0 -15 -4
-15 -9z"/>
<path d="M1915 1649 c-4 -6 -5 -12 -2 -15 2 -3 7 2 10 11 7 17 1 20 -8 4z"/>
<path d="M1840 1570 c12 -8 12 -10 1 -10 -8 0 -12 -2 -9 -5 3 -3 13 -2 22 1
14 5 15 9 4 15 -7 5 -17 9 -23 9 -5 0 -3 -5 5 -10z"/>
<path d="M1867 1539 c7 -7 15 -10 18 -7 3 3 -2 9 -12 12 -14 6 -15 5 -6 -5z"/>
<path d="M1786 1482 c-7 -12 12 -38 21 -28 4 5 2 11 -5 13 -6 3 -10 9 -6 14 3
5 3 9 0 9 -3 0 -7 -4 -10 -8z"/>
<path d="M1710 1240 c0 -5 5 -10 11 -10 5 0 7 5 4 10 -3 6 -8 10 -11 10 -2 0
-4 -4 -4 -10z"/>
<path d="M1660 1230 c-8 -5 -12 -12 -9 -15 4 -3 12 1 19 10 14 17 11 19 -10 5z"/>
<path d="M1673 1165 c0 -8 4 -12 9 -9 5 3 6 10 3 15 -9 13 -12 11 -12 -6z"/>
<path d="M1636 1151 c-10 -11 -16 -26 -13 -33 4 -10 6 -10 6 1 1 8 8 23 18 33
9 10 14 18 11 18 -3 0 -13 -9 -22 -19z"/>
<path d="M2991 4074 c0 -11 3 -14 6 -6 3 7 2 16 -1 19 -3 4 -6 -2 -5 -13z"/>
<path d="M3115 3849 c-4 -6 -5 -12 -2 -15 2 -3 7 2 10 11 7 17 1 20 -8 4z"/>
<path d="M3780 2566 c0 -2 8 -10 18 -17 15 -13 16 -12 3 4 -13 16 -21 21 -21
13z"/>
<path d="M4315 1541 c-3 -5 -2 -12 3 -15 5 -3 9 1 9 9 0 17 -3 19 -12 6z"/>
<path d="M4515 1179 c-4 -6 -5 -12 -2 -15 2 -3 7 2 10 11 7 17 1 20 -8 4z"/>
<path d="M4686 838 c3 -5 10 -6 15 -3 13 9 11 12 -6 12 -8 0 -12 -4 -9 -9z"/>
<path d="M4715 800 c2 -27 10 -33 12 -10 1 11 -2 22 -6 24 -4 3 -7 -4 -6 -14z"/>
<path d="M4907 439 c7 -7 15 -10 18 -7 3 3 -2 9 -12 12 -14 6 -15 5 -6 -5z"/>
<path d="M313 223 c0 -7 4 -13 8 -13 4 0 9 6 12 13 3 8 0 14 -7 14 -7 0 -13
-6 -13 -14z"/>
<path d="M378 233 c6 -2 10 -8 8 -12 -3 -4 1 -8 9 -8 11 0 12 4 4 14 -6 7 -17
13 -23 12 -7 0 -6 -2 2 -6z"/>
<path d="M780 230 c-9 -6 -10 -10 -3 -10 6 0 15 5 18 10 8 12 4 12 -15 0z"/>
<path d="M873 223 c0 -7 4 -13 8 -13 4 0 9 6 12 13 3 8 0 14 -7 14 -7 0 -13
-6 -13 -14z"/>
<path d="M1285 229 c-4 -6 -5 -12 -2 -15 2 -3 7 2 10 11 7 17 1 20 -8 4z"/>
<path d="M1338 233 c6 -2 10 -8 8 -12 -3 -4 1 -8 9 -8 11 0 12 4 4 14 -6 7
-17 13 -23 12 -7 0 -6 -2 2 -6z"/>
<path d="M1740 230 c-9 -6 -10 -10 -3 -10 6 0 15 5 18 10 8 12 4 12 -15 0z"/>
<path d="M1833 223 c0 -7 4 -13 8 -13 4 0 9 6 12 13 3 8 0 14 -7 14 -7 0 -13
-6 -13 -14z"/>
<path d="M2245 229 c-4 -6 -5 -12 -2 -15 2 -3 7 2 10 11 7 17 1 20 -8 4z"/>
<path d="M2298 233 c6 -2 10 -8 8 -12 -3 -4 1 -8 9 -8 11 0 12 4 4 14 -6 7
-17 13 -23 12 -7 0 -6 -2 2 -6z"/>
<path d="M2700 230 c-9 -6 -10 -10 -3 -10 6 0 15 5 18 10 8 12 4 12 -15 0z"/>
<path d="M2793 223 c0 -17 13 -17 20 0 3 8 0 14 -7 14 -7 0 -13 -6 -13 -14z"/>
<path d="M3205 229 c-4 -6 -5 -12 -2 -15 2 -3 7 2 10 11 7 17 1 20 -8 4z"/>
<path d="M3258 233 c6 -2 10 -8 8 -12 -3 -4 1 -8 9 -8 11 0 12 4 4 14 -6 7
-17 13 -23 12 -7 0 -6 -2 2 -6z"/>
<path d="M3660 230 c-9 -6 -10 -10 -3 -10 6 0 15 5 18 10 8 12 4 12 -15 0z"/>
<path d="M3753 223 c0 -17 13 -17 20 0 3 8 0 14 -7 14 -7 0 -13 -6 -13 -14z"/>
<path d="M4165 229 c-4 -6 -5 -12 -2 -15 2 -3 7 2 10 11 7 17 1 20 -8 4z"/>
<path d="M4218 233 c6 -2 10 -8 8 -12 -3 -4 1 -8 9 -8 11 0 12 4 4 14 -6 7
-17 13 -23 12 -7 0 -6 -2 2 -6z"/>
<path d="M4620 230 c-9 -6 -10 -10 -3 -10 6 0 15 5 18 10 8 12 4 12 -15 0z"/>
<path d="M4713 223 c0 -17 13 -17 20 0 3 8 0 14 -7 14 -7 0 -13 -6 -13 -14z"/>
<path d="M350 220 c0 -5 5 -10 11 -10 5 0 7 5 4 10 -3 6 -8 10 -11 10 -2 0 -4
-4 -4 -10z"/>
<path d="M650 222 c0 -5 7 -9 15 -9 8 0 12 4 9 9 -3 4 -9 8 -15 8 -5 0 -9 -4
-9 -8z"/>
<path d="M810 222 c0 -5 7 -9 15 -9 8 0 12 4 9 9 -3 4 -9 8 -15 8 -5 0 -9 -4
-9 -8z"/>
<path d="M910 220 c0 -5 5 -10 11 -10 5 0 7 5 4 10 -3 6 -8 10 -11 10 -2 0 -4
-4 -4 -10z"/>
<path d="M1310 220 c0 -5 5 -10 11 -10 5 0 7 5 4 10 -3 6 -8 10 -11 10 -2 0
-4 -4 -4 -10z"/>
<path d="M1610 222 c0 -5 7 -9 15 -9 8 0 12 4 9 9 -3 4 -9 8 -15 8 -5 0 -9 -4
-9 -8z"/>
<path d="M1770 222 c0 -5 7 -9 15 -9 8 0 12 4 9 9 -3 4 -9 8 -15 8 -5 0 -9 -4
-9 -8z"/>
<path d="M1870 220 c0 -5 5 -10 11 -10 5 0 7 5 4 10 -3 6 -8 10 -11 10 -2 0
-4 -4 -4 -10z"/>
<path d="M2270 220 c0 -5 5 -10 11 -10 5 0 7 5 4 10 -3 6 -8 10 -11 10 -2 0
-4 -4 -4 -10z"/>
<path d="M2570 222 c0 -5 7 -9 15 -9 8 0 12 4 9 9 -3 4 -9 8 -15 8 -5 0 -9 -4
-9 -8z"/>
<path d="M2730 222 c0 -5 7 -9 15 -9 8 0 12 4 9 9 -3 4 -9 8 -15 8 -5 0 -9 -4
-9 -8z"/>
<path d="M2830 220 c0 -5 5 -10 11 -10 5 0 7 5 4 10 -3 6 -8 10 -11 10 -2 0
-4 -4 -4 -10z"/>
<path d="M3230 220 c0 -5 5 -10 11 -10 5 0 7 5 4 10 -3 6 -8 10 -11 10 -2 0
-4 -4 -4 -10z"/>
<path d="M3530 222 c0 -5 7 -9 15 -9 8 0 12 4 9 9 -3 4 -9 8 -15 8 -5 0 -9 -4
-9 -8z"/>
<path d="M3690 222 c0 -5 7 -9 15 -9 8 0 12 4 9 9 -3 4 -9 8 -15 8 -5 0 -9 -4
-9 -8z"/>
<path d="M3790 220 c0 -5 5 -10 11 -10 5 0 7 5 4 10 -3 6 -8 10 -11 10 -2 0
-4 -4 -4 -10z"/>
<path d="M4190 220 c0 -5 5 -10 11 -10 5 0 7 5 4 10 -3 6 -8 10 -11 10 -2 0
-4 -4 -4 -10z"/>
<path d="M4490 222 c0 -5 7 -9 15 -9 8 0 12 4 9 9 -3 4 -9 8 -15 8 -5 0 -9 -4
-9 -8z"/>
<path d="M4650 222 c0 -5 7 -9 15 -9 8 0 12 4 9 9 -3 4 -9 8 -15 8 -5 0 -9 -4
-9 -8z"/>
<path d="M4750 220 c0 -5 5 -10 11 -10 5 0 7 5 4 10 -3 6 -8 10 -11 10 -2 0
-4 -4 -4 -10z"/>
<path d="M730 216 c0 -3 9 -10 19 -16 15 -7 22 -7 27 2 4 7 4 10 -1 6 -4 -4
-16 -3 -26 3 -11 5 -19 7 -19 5z"/>
<path d="M1133 205 c0 -8 4 -12 9 -9 5 3 6 10 3 15 -9 13 -12 11 -12 -6z"/>
<path d="M1690 216 c0 -3 9 -10 19 -16 15 -7 22 -7 27 2 4 7 4 10 -1 6 -4 -4
-16 -3 -26 3 -11 5 -19 7 -19 5z"/>
<path d="M2093 205 c0 -8 4 -12 9 -9 5 3 6 10 3 15 -9 13 -12 11 -12 -6z"/>
<path d="M2650 216 c0 -3 9 -10 19 -16 15 -7 22 -7 27 2 4 7 4 10 -1 6 -4 -4
-16 -3 -26 3 -11 5 -19 7 -19 5z"/>
<path d="M3053 205 c0 -8 4 -12 9 -9 5 3 6 10 3 15 -9 13 -12 11 -12 -6z"/>
<path d="M3610 216 c0 -3 9 -10 19 -16 15 -7 22 -7 27 2 4 7 4 10 -1 6 -4 -4
-16 -3 -26 3 -11 5 -19 7 -19 5z"/>
<path d="M4013 205 c0 -8 4 -12 9 -9 5 3 6 10 3 15 -9 13 -12 11 -12 -6z"/>
<path d="M4570 216 c0 -3 9 -10 19 -16 15 -7 22 -7 27 2 4 7 4 10 -1 6 -4 -4
-16 -3 -26 3 -11 5 -19 7 -19 5z"/>
<path d="M1226 198 c3 -5 10 -6 15 -3 13 9 11 12 -6 12 -8 0 -12 -4 -9 -9z"/>
<path d="M2186 198 c3 -5 10 -6 15 -3 13 9 11 12 -6 12 -8 0 -12 -4 -9 -9z"/>
<path d="M3146 198 c3 -5 10 -6 15 -3 13 9 11 12 -6 12 -8 0 -12 -4 -9 -9z"/>
<path d="M4106 198 c3 -5 10 -6 15 -3 13 9 11 12 -6 12 -8 0 -12 -4 -9 -9z"/>
</g>
</svg>
